<svg width="919" height="723" viewBox="0 0 919 723" fill="none" xmlns="http://www.w3.org/2000/svg">
<g id="undraw_after_the_rain_58op 1">
<g id="umbrella">
<path id="Vector" d="M269.405 476.393L260.805 490.451C260.805 490.451 260.392 494.012 263.255 491.856C266.119 489.699 271.681 477.155 271.681 477.155L269.405 476.393Z" fill="#2F2E41"/>
<path id="Vector_2" d="M343.258 341.863L364.904 305.756C366.305 303.368 368.254 301.348 370.59 299.862C372.925 298.377 375.581 297.469 378.337 297.212C382.73 296.857 387.358 298.24 389.661 304.443C394.781 318.227 384.492 328.606 384.492 328.606C384.492 328.606 379.995 329.826 380.234 325.623L385.384 316.639C385.384 316.639 389.661 304.443 377.694 303.551C365.727 302.66 348.626 343.855 348.626 343.855L343.258 341.863Z" fill="#2F2E41"/>
<path id="Vector_3" d="M356.445 347.251L342.476 359.317C342.452 364.49 337.881 374.945 331.11 387.61C330.595 388.585 330.064 389.57 329.518 390.566C325.496 397.934 320.825 405.933 315.934 414.013C315.396 414.903 314.854 415.795 314.308 416.688C308.835 425.65 303.148 434.635 297.835 442.863C297.282 443.723 296.732 444.569 296.191 445.42C290.062 454.862 284.536 463.169 280.545 469.101C279.956 469.978 279.399 470.798 278.884 471.572C275.908 475.98 274.131 478.559 274.131 478.559C273.075 479.223 271.843 479.554 270.596 479.511C270.137 479.464 269.696 479.304 269.313 479.046C268.93 478.788 268.617 478.439 268.401 478.031C267.106 475.851 267.543 472.07 267.543 472.07C268.496 465.645 271.445 457.548 275.612 448.631C276.107 447.558 276.626 446.472 277.157 445.377C281.4 436.687 286.664 427.341 292.281 418.071C292.825 417.179 293.369 416.286 293.913 415.394C299.371 406.505 305.087 397.754 310.465 389.791C311.028 388.969 311.581 388.157 312.126 387.347C317.415 379.587 322.299 372.675 326.197 367.266C326.783 366.452 327.339 365.68 327.876 364.941C332.333 358.793 335.126 355.104 335.126 355.104L338.303 336.31L344.388 339.977L349.072 342.802L356.445 347.251Z" fill="#3F3D56"/>
<path id="Vector_4" d="M277.157 445.377L280.545 469.101C279.956 469.978 279.399 470.798 278.884 471.572L275.612 448.631C276.107 447.558 276.626 446.472 277.157 445.377Z" fill="#FF63E6"/>
<path id="Vector_5" d="M293.913 415.394L297.835 442.863C297.282 443.723 296.732 444.569 296.191 445.42L292.281 418.071C292.825 417.179 293.369 416.286 293.913 415.394Z" fill="#FF63E6"/>
<path id="Vector_6" d="M312.126 387.347L315.934 414.013C315.396 414.903 314.854 415.795 314.308 416.688L310.465 389.791C311.028 388.969 311.581 388.157 312.126 387.347Z" fill="#FF63E6"/>
<path id="Vector_7" d="M327.876 364.941L331.11 387.61C330.595 388.585 330.064 389.57 329.518 390.566L326.197 367.266C326.783 366.452 327.339 365.68 327.876 364.941Z" fill="#FF63E6"/>
</g>
<path id="hair" d="M492.809 143.73C489.484 146.132 485.633 147.704 481.577 148.313C477.521 148.922 473.378 148.551 469.495 147.231C465.612 145.91 462.101 143.679 459.257 140.724C456.413 137.769 454.318 134.175 453.148 130.244C453.591 133.767 454.759 137.16 456.579 140.208C458.4 143.256 460.832 145.894 463.723 147.955C466.614 150.016 469.902 151.455 473.377 152.181C476.852 152.907 480.441 152.905 483.915 152.175C487.39 151.444 490.675 150.001 493.564 147.937C496.452 145.873 498.882 143.232 500.698 140.182C502.515 137.131 503.68 133.737 504.118 130.214C504.557 126.691 504.261 123.115 503.248 119.712C503.823 124.284 503.157 128.926 501.321 133.152C499.484 137.378 496.544 141.032 492.809 143.73V143.73Z" fill="#2F2E41"/>
<g id="woman">
<path id="Vector_8" d="M442.833 181.961C457.017 181.961 468.516 170.463 468.516 156.279C468.516 142.094 457.017 130.596 442.833 130.596C428.649 130.596 417.15 142.094 417.15 156.279C417.15 170.463 428.649 181.961 442.833 181.961Z" fill="#2F2E41"/>
<path id="Vector_9" d="M426.738 173.582C426.738 173.582 428.948 198.999 426.738 205.629C424.528 212.26 455.47 202.314 455.47 202.314C455.47 202.314 443.314 173.582 445.524 170.82C447.734 168.057 426.738 173.582 426.738 173.582Z" fill="#FFB8B8"/>
<path id="Vector_10" d="M425.909 359.51L424.251 440.733C424.251 440.733 423.146 447.916 428.119 456.204C433.092 464.492 455.193 526.928 455.193 526.928L473.427 516.983L471.769 492.119C471.769 492.119 468.454 457.861 457.403 445.153L473.427 367.246L425.909 359.51Z" fill="#FFB8B8"/>
<path id="Vector_11" opacity="0.1" d="M425.909 359.51L424.251 440.733C424.251 440.733 423.146 447.916 428.119 456.204C433.092 464.492 455.193 526.928 455.193 526.928L473.427 516.983L471.769 492.119C471.769 492.119 468.454 457.861 457.403 445.153L473.427 367.246L425.909 359.51Z" fill="black"/>
<path id="Vector_12" d="M416.516 361.72L414.858 442.943C414.858 442.943 413.753 450.126 418.726 458.414C423.699 466.702 445.8 529.138 445.8 529.138L464.034 519.193L462.376 494.329C462.376 494.329 459.061 460.072 448.01 447.363L464.034 369.456L416.516 361.72Z" fill="#FFB8B8"/>
<path id="Vector_13" d="M434.473 187.396C446.069 187.396 455.469 177.995 455.469 166.399C455.469 154.804 446.069 145.403 434.473 145.403C422.877 145.403 413.477 154.804 413.477 166.399C413.477 177.995 422.877 187.396 434.473 187.396Z" fill="#FFB8B8"/>
<path id="Vector_14" d="M418.726 342.934C418.726 342.934 408.78 367.798 415.411 368.903C422.041 370.008 459.613 372.771 461.271 371.666C462.929 370.561 468.454 341.829 418.726 342.934Z" fill="#865754"/>
<path id="jacket" d="M486.688 353.985C475.084 365.036 481.715 370.008 477.295 378.296C472.874 386.584 440.275 379.954 427.014 362.273C413.753 344.592 410.438 351.222 396.072 349.012C381.706 346.802 368.998 336.304 381.154 330.226C386.707 327.447 391.917 321.673 395.569 314.423C398.262 309.08 399.95 303.287 400.548 297.334C400.966 293.188 400.761 289.003 399.94 284.918C397.73 274.182 401.476 252.982 407.565 234.102C411.869 220.752 417.35 208.563 422.726 202.055C423.047 201.657 423.373 201.286 423.699 200.933C436.96 186.567 466.796 197.065 466.796 197.065C466.796 197.065 488.898 215.299 481.162 238.505C474.704 257.265 475.492 277.761 483.372 295.969C489.45 309.782 498.291 342.934 486.688 353.985Z" fill="#575A89"/>
<path id="Vector_15" opacity="0.1" d="M430.329 204.801C430.329 204.801 414.317 198.343 414.588 223.673C414.858 249.003 422.594 279.393 422.594 279.393L399.986 312.096L407.123 323.043L452.983 285.471V233.532C452.983 233.532 450.773 207.011 430.329 204.801Z" fill="black"/>
<path id="Vector_16" opacity="0.1" d="M445.248 230.77V282.708L402.979 317.241L400.216 311.163C402.802 306.025 399.962 303.406 400.548 297.334L414.858 276.63C411.448 262.639 409.011 248.429 407.565 234.101C411.869 220.752 417.35 208.563 422.726 202.054C443.049 204.364 445.248 230.77 445.248 230.77Z" fill="black"/>
<path id="Vector_17" d="M428.119 202.038C428.119 202.038 412.107 195.58 412.378 220.91C412.648 246.241 420.384 276.63 420.384 276.63L397.775 309.333L404.913 320.28L450.773 282.708V230.77C450.773 230.77 448.563 204.248 428.119 202.038Z" fill="#575A89"/>
<path id="Vector_18" d="M470.656 148.146C484.84 148.146 496.339 136.647 496.339 122.463C496.339 108.279 484.84 96.7801 470.656 96.7801C456.472 96.7801 444.973 108.279 444.973 122.463C444.973 136.647 456.472 148.146 470.656 148.146Z" fill="#2F2E41"/>
<path id="Vector_19" d="M449.681 179.393C460.083 179.393 468.516 170.961 468.516 160.559C468.516 150.157 460.083 141.725 449.681 141.725C439.28 141.725 430.847 150.157 430.847 160.559C430.847 170.961 439.28 179.393 449.681 179.393Z" fill="#2F2E41"/>
<path id="Vector_20" d="M433.844 166.552C443.063 166.552 450.538 160.707 450.538 153.496C450.538 146.286 443.063 140.441 433.844 140.441C424.624 140.441 417.15 146.286 417.15 153.496C417.15 160.707 424.624 166.552 433.844 166.552Z" fill="#2F2E41"/>
<path id="Vector_21" d="M429.391 172.48C431.141 172.48 432.559 169.97 432.559 166.874C432.559 163.778 431.141 161.269 429.391 161.269C427.641 161.269 426.223 163.778 426.223 166.874C426.223 169.97 427.641 172.48 429.391 172.48Z" fill="#FFB8B8"/>
</g>
<g id="rain">
<path id="Vector_22" d="M628.242 626.093C628.242 615.921 595.369 606.974 545.635 601.798C585.038 600.716 614.242 596.782 614.242 592.093C614.242 586.57 573.723 582.093 523.742 582.093C473.76 582.093 433.242 586.57 433.242 592.093C433.242 593.915 437.655 595.624 445.362 597.095C345.252 597.171 264.242 610.124 264.242 626.093C264.242 634.404 286.19 641.898 321.347 647.185C299.991 649.015 286.242 651.876 286.242 655.093C286.242 660.616 326.76 665.093 376.742 665.093C426.723 665.093 467.242 660.616 467.242 655.093C467.24 655.028 467.232 654.964 467.22 654.9C557.852 653.242 628.242 640.979 628.242 626.093Z" fill="#F2F2F2"/>
<path id="Vector_23" opacity="0.1" d="M542.742 614.697C541.561 614.697 540.394 614.706 539.242 614.724C558.034 615.006 572.742 617.525 572.742 620.593C572.742 623.661 558.034 626.18 539.242 626.462C540.394 626.479 541.561 626.488 542.742 626.489C563.176 626.489 579.742 623.849 579.742 620.593C579.742 617.337 563.176 614.697 542.742 614.697Z" fill="black"/>
<path id="Vector_24" opacity="0.1" d="M549.742 586.697C548.561 586.697 547.394 586.706 546.242 586.724C565.034 587.006 579.742 589.525 579.742 592.593C579.742 595.661 565.034 598.18 546.242 598.462C547.394 598.479 548.561 598.488 549.742 598.489C570.176 598.489 586.742 595.849 586.742 592.593C586.742 589.337 570.176 586.697 549.742 586.697Z" fill="black"/>
<path id="Vector_25" opacity="0.1" d="M365.742 614.697C366.923 614.697 368.089 614.706 369.242 614.724C350.45 615.006 335.742 617.525 335.742 620.593C335.742 623.661 350.45 626.18 369.242 626.462C368.089 626.479 366.922 626.488 365.742 626.489C345.307 626.489 328.742 623.849 328.742 620.593C328.742 617.337 345.307 614.697 365.742 614.697Z" fill="black"/>
<path id="Vector_26" opacity="0.1" d="M499.742 585.697C500.923 585.697 502.089 585.706 503.242 585.724C484.449 586.006 469.742 588.525 469.742 591.593C469.742 594.661 484.449 597.18 503.242 597.462C502.089 597.479 500.922 597.488 499.742 597.489C479.307 597.489 462.742 594.849 462.742 591.593C462.742 588.337 479.307 585.697 499.742 585.697Z" fill="black"/>
<path id="Vector_27" opacity="0.1" d="M510.6 636.593C502.78 638.444 481.181 639.776 455.742 639.776C430.302 639.776 408.704 638.444 400.884 636.593C398.857 637.073 397.742 637.587 397.742 638.123C397.742 640.725 423.709 642.835 455.742 642.835C487.774 642.835 513.742 640.725 513.742 638.123C513.742 637.587 512.626 637.073 510.6 636.593Z" fill="black"/>
<path id="Vector_28" opacity="0.1" d="M515.6 611.593C507.78 610.632 486.181 609.94 460.742 609.94C435.302 609.94 413.704 610.632 405.884 611.593C403.857 611.344 402.742 611.077 402.742 610.799C402.742 609.447 428.709 608.351 460.742 608.351C492.774 608.351 518.742 609.447 518.742 610.799C518.742 611.077 517.626 611.344 515.6 611.593Z" fill="black"/>
<path id="Vector_29" opacity="0.1" d="M397.712 658.319C393.725 659.269 382.713 659.953 369.742 659.953C356.771 659.953 345.758 659.269 341.771 658.319C340.738 658.565 340.169 658.829 340.169 659.104C340.169 660.44 353.409 661.523 369.742 661.523C386.074 661.523 399.314 660.44 399.314 659.104C399.314 658.829 398.746 658.565 397.712 658.319Z" fill="black"/>
<path id="Vector_30" d="M537.144 562.892C538.637 560.905 539.899 561.834 541.444 562.995C542.99 564.156 544.234 565.109 542.741 567.096C541.249 569.083 536.039 570.191 536.039 570.191C536.039 570.191 535.652 564.879 537.144 562.892Z" fill="#F2F2F2"/>
<path id="Vector_31" d="M411.844 583.621C410.101 581.849 411.208 580.74 412.586 579.385C413.964 578.029 415.092 576.941 416.835 578.713C418.577 580.485 418.897 585.801 418.897 585.801C418.897 585.801 413.587 585.393 411.844 583.621Z" fill="#F2F2F2"/>
<path id="Vector_32" opacity="0.1" d="M521.386 588.57C523.698 589.481 523.137 590.945 522.428 592.743C521.72 594.541 521.131 595.994 518.819 595.083C516.507 594.171 514.055 589.443 514.055 589.443C514.055 589.443 519.073 587.659 521.386 588.57Z" fill="black"/>
<path id="Vector_33" opacity="0.1" d="M424.502 636.262C423.126 638.331 422.335 637.823 421.369 637.181C420.403 636.538 419.629 636.006 421.005 633.936C422.381 631.867 426.353 629.687 426.353 629.687C426.353 629.687 425.878 634.193 424.502 636.262Z" fill="black"/>
<path id="Vector_34" opacity="0.1" d="M453.502 638.262C452.126 640.331 451.335 639.823 450.369 639.181C449.403 638.538 448.629 638.006 450.005 635.936C451.381 633.867 455.353 631.687 455.353 631.687C455.353 631.687 454.878 636.193 453.502 638.262Z" fill="black"/>
<path id="Vector_35" opacity="0.1" d="M489.634 624.282C490.747 626.505 489.913 626.939 488.875 627.458C487.838 627.977 486.991 628.385 485.878 626.162C484.766 623.94 484.847 619.41 484.847 619.41C484.847 619.41 488.522 622.06 489.634 624.282Z" fill="black"/>
<path id="Vector_36" opacity="0.1" d="M476.634 628.282C477.747 630.505 476.913 630.939 475.875 631.458C474.838 631.977 473.991 632.385 472.878 630.162C471.766 627.94 471.847 623.41 471.847 623.41C471.847 623.41 475.522 626.06 476.634 628.282Z" fill="black"/>
<path id="Vector_37" d="M524.802 541.562C526.978 540.362 527.748 541.727 528.682 543.419C529.616 545.112 530.36 546.491 528.184 547.692C526.007 548.892 520.802 547.767 520.802 547.767C520.802 547.767 522.626 542.763 524.802 541.562Z" fill="#F2F2F2"/>
</g>
<g id="boots">
<path id="Vector_38" d="M475.637 505.379C475.637 505.379 429.777 514.772 437.512 529.691C445.248 544.609 459.613 575.551 459.613 575.551C459.613 575.551 463.481 594.89 456.298 598.758C449.115 602.625 434.197 625.832 448.563 624.727C462.929 623.622 476.742 607.598 476.742 607.598L488.898 592.127L491.108 595.995L513.209 577.761C513.209 577.761 521.497 560.08 491.108 551.24L475.637 505.379Z" fill="#2F2E41"/>
<path id="Vector_39" opacity="0.1" d="M475.637 505.379C475.637 505.379 429.777 514.772 437.512 529.691C445.248 544.609 459.613 575.551 459.613 575.551C459.613 575.551 463.481 594.89 456.298 598.758C449.115 602.625 434.197 625.832 448.563 624.727C462.929 623.622 476.742 607.598 476.742 607.598L488.898 592.127L491.108 595.995L513.209 577.761C513.209 577.761 521.497 560.08 491.108 551.24L475.637 505.379Z" fill="black"/>
<path id="Vector_40" d="M466.244 507.589C466.244 507.589 420.383 516.983 428.119 531.901C435.854 546.819 450.22 577.761 450.22 577.761C450.22 577.761 454.088 597.1 446.905 600.968C439.722 604.836 424.804 628.042 439.17 626.937C453.536 625.832 467.349 609.808 467.349 609.808L479.505 594.337L481.715 598.205L503.816 579.971C503.816 579.971 512.104 562.29 481.715 553.45L466.244 507.589Z" fill="#2F2E41"/>
</g>
<path id="hand" d="M400.492 308.677L394.414 312.545C394.414 312.545 369.55 305.362 370.103 312.545C370.655 319.728 396.072 321.938 396.072 321.938L404.913 315.307L400.492 308.677Z" fill="#FFB8B8"/>
<path id="kapuze" d="M431.987 198.17C431.987 198.17 455.193 185.462 465.691 185.462C476.19 185.462 487.793 180.489 488.898 186.567C490.003 192.645 501.054 208.668 490.003 207.563C478.952 206.458 470.112 208.116 464.586 207.563C459.061 207.011 431.987 198.17 431.987 198.17Z" fill="#575A89"/>
</g>
</svg>
